<mxfile host="65bd71144e">
    <diagram id="C5RBs43oDa-KdzZeNtuy" name="Page-1">
        <mxGraphModel dx="705" dy="669" grid="1" gridSize="10" guides="1" tooltips="1" connect="1" arrows="1" fold="1" page="1" pageScale="1" pageWidth="827" pageHeight="1169" math="0" shadow="0">
            <root>
                <mxCell id="WIyWlLk6GJQsqaUBKTNV-0"/>
                <mxCell id="WIyWlLk6GJQsqaUBKTNV-1" parent="WIyWlLk6GJQsqaUBKTNV-0"/>
                <mxCell id="WIyWlLk6GJQsqaUBKTNV-3" value="start" style="rounded=1;whiteSpace=wrap;html=1;fontSize=12;glass=0;strokeWidth=1;shadow=0;" parent="WIyWlLk6GJQsqaUBKTNV-1" vertex="1">
                    <mxGeometry x="320" y="40" width="120" height="40" as="geometry"/>
                </mxCell>
                <mxCell id="WIyWlLk6GJQsqaUBKTNV-12" value="Ask input of the bidder name" style="rounded=1;whiteSpace=wrap;html=1;fontSize=12;glass=0;strokeWidth=1;shadow=0;" parent="WIyWlLk6GJQsqaUBKTNV-1" vertex="1">
                    <mxGeometry x="319" y="180" width="120" height="40" as="geometry"/>
                </mxCell>
                <mxCell id="wdoOX7xAPzJTEBuRFlvZ-0" value="Print Logo" style="rounded=1;whiteSpace=wrap;html=1;" parent="WIyWlLk6GJQsqaUBKTNV-1" vertex="1">
                    <mxGeometry x="320" y="110" width="120" height="30" as="geometry"/>
                </mxCell>
                <mxCell id="wdoOX7xAPzJTEBuRFlvZ-4" value="" style="endArrow=classic;html=1;rounded=0;" parent="WIyWlLk6GJQsqaUBKTNV-1" edge="1">
                    <mxGeometry width="50" height="50" relative="1" as="geometry">
                        <mxPoint x="379" y="220" as="sourcePoint"/>
                        <mxPoint x="378.5" y="260" as="targetPoint"/>
                    </mxGeometry>
                </mxCell>
                <mxCell id="wdoOX7xAPzJTEBuRFlvZ-6" value="" style="endArrow=classic;html=1;rounded=0;" parent="WIyWlLk6GJQsqaUBKTNV-1" edge="1">
                    <mxGeometry width="50" height="50" relative="1" as="geometry">
                        <mxPoint x="379.5" y="80" as="sourcePoint"/>
                        <mxPoint x="380" y="110" as="targetPoint"/>
                    </mxGeometry>
                </mxCell>
                <mxCell id="wdoOX7xAPzJTEBuRFlvZ-7" value="" style="endArrow=classic;html=1;rounded=0;" parent="WIyWlLk6GJQsqaUBKTNV-1" edge="1">
                    <mxGeometry width="50" height="50" relative="1" as="geometry">
                        <mxPoint x="378.5" y="140" as="sourcePoint"/>
                        <mxPoint x="379" y="180" as="targetPoint"/>
                    </mxGeometry>
                </mxCell>
                <mxCell id="wdoOX7xAPzJTEBuRFlvZ-13" value="Ask input if any other bidder is there" style="rhombus;whiteSpace=wrap;html=1;" parent="WIyWlLk6GJQsqaUBKTNV-1" vertex="1">
                    <mxGeometry x="320" y="360" width="120" height="80" as="geometry"/>
                </mxCell>
                <mxCell id="wdoOX7xAPzJTEBuRFlvZ-19" value="" style="line;strokeWidth=2;html=1;" parent="WIyWlLk6GJQsqaUBKTNV-1" vertex="1">
                    <mxGeometry x="440" y="395" width="80" height="10" as="geometry"/>
                </mxCell>
                <mxCell id="wdoOX7xAPzJTEBuRFlvZ-22" value="" style="line;strokeWidth=2;html=1;" parent="WIyWlLk6GJQsqaUBKTNV-1" vertex="1">
                    <mxGeometry x="80" y="395" width="240" height="10" as="geometry"/>
                </mxCell>
                <mxCell id="wdoOX7xAPzJTEBuRFlvZ-28" value="" style="endArrow=classic;html=1;rounded=0;entryX=0.5;entryY=0;entryDx=0;entryDy=0;" parent="WIyWlLk6GJQsqaUBKTNV-1" edge="1">
                    <mxGeometry width="50" height="50" relative="1" as="geometry">
                        <mxPoint x="521" y="400" as="sourcePoint"/>
                        <mxPoint x="520.5" y="460" as="targetPoint"/>
                        <Array as="points">
                            <mxPoint x="520.5" y="425"/>
                        </Array>
                    </mxGeometry>
                </mxCell>
                <mxCell id="wdoOX7xAPzJTEBuRFlvZ-29" value="Print Highest bidder" style="rounded=1;whiteSpace=wrap;html=1;fontSize=12;glass=0;strokeWidth=1;shadow=0;" parent="WIyWlLk6GJQsqaUBKTNV-1" vertex="1">
                    <mxGeometry x="465" y="460" width="120" height="40" as="geometry"/>
                </mxCell>
                <mxCell id="wdoOX7xAPzJTEBuRFlvZ-30" value="&lt;font style=&quot;font-size: 10px;&quot;&gt;No&lt;/font&gt;" style="shape=ext;double=1;rounded=1;whiteSpace=wrap;html=1;" parent="WIyWlLk6GJQsqaUBKTNV-1" vertex="1">
                    <mxGeometry x="465" y="405" width="30" height="15" as="geometry"/>
                </mxCell>
                <mxCell id="VZGFqEaVBWsNAY5pUhTf-2" value="" style="endArrow=none;html=1;rounded=0;fontSize=10;startArrow=none;" parent="WIyWlLk6GJQsqaUBKTNV-1" source="VZGFqEaVBWsNAY5pUhTf-11" edge="1">
                    <mxGeometry width="50" height="50" relative="1" as="geometry">
                        <mxPoint x="239" y="759" as="sourcePoint"/>
                        <mxPoint x="239" y="709" as="targetPoint"/>
                    </mxGeometry>
                </mxCell>
                <mxCell id="VZGFqEaVBWsNAY5pUhTf-3" value="" style="endArrow=none;html=1;rounded=0;fontSize=10;" parent="WIyWlLk6GJQsqaUBKTNV-1" edge="1">
                    <mxGeometry width="50" height="50" relative="1" as="geometry">
                        <mxPoint x="239" y="759" as="sourcePoint"/>
                        <mxPoint x="520" y="759" as="targetPoint"/>
                    </mxGeometry>
                </mxCell>
                <mxCell id="VZGFqEaVBWsNAY5pUhTf-10" value="" style="endArrow=classic;html=1;rounded=0;fontSize=10;entryX=0;entryY=0.5;entryDx=0;entryDy=0;" parent="WIyWlLk6GJQsqaUBKTNV-1" edge="1">
                    <mxGeometry width="50" height="50" relative="1" as="geometry">
                        <mxPoint x="76" y="199.5" as="sourcePoint"/>
                        <mxPoint x="315" y="199.5" as="targetPoint"/>
                        <Array as="points">
                            <mxPoint x="76" y="199.5"/>
                        </Array>
                    </mxGeometry>
                </mxCell>
                <mxCell id="VZGFqEaVBWsNAY5pUhTf-11" value="&lt;font style=&quot;font-size: 10px;&quot;&gt;Yes&lt;/font&gt;" style="shape=ext;double=1;rounded=1;whiteSpace=wrap;html=1;" parent="WIyWlLk6GJQsqaUBKTNV-1" vertex="1">
                    <mxGeometry x="225" y="730" width="30" height="15" as="geometry"/>
                </mxCell>
                <mxCell id="VZGFqEaVBWsNAY5pUhTf-12" value="" style="endArrow=none;html=1;rounded=0;fontSize=10;" parent="WIyWlLk6GJQsqaUBKTNV-1" target="VZGFqEaVBWsNAY5pUhTf-11" edge="1">
                    <mxGeometry width="50" height="50" relative="1" as="geometry">
                        <mxPoint x="239" y="759" as="sourcePoint"/>
                        <mxPoint x="239" y="709" as="targetPoint"/>
                    </mxGeometry>
                </mxCell>
                <mxCell id="VZGFqEaVBWsNAY5pUhTf-23" value="" style="endArrow=none;html=1;rounded=0;fontSize=10;startArrow=none;" parent="WIyWlLk6GJQsqaUBKTNV-1" source="VZGFqEaVBWsNAY5pUhTf-26" edge="1">
                    <mxGeometry width="50" height="50" relative="1" as="geometry">
                        <mxPoint x="520" y="760" as="sourcePoint"/>
                        <mxPoint x="520" y="709" as="targetPoint"/>
                    </mxGeometry>
                </mxCell>
                <mxCell id="VZGFqEaVBWsNAY5pUhTf-24" value="" style="endArrow=classic;html=1;rounded=0;fontSize=10;" parent="WIyWlLk6GJQsqaUBKTNV-1" edge="1">
                    <mxGeometry width="50" height="50" relative="1" as="geometry">
                        <mxPoint x="380" y="759" as="sourcePoint"/>
                        <mxPoint x="380" y="800" as="targetPoint"/>
                    </mxGeometry>
                </mxCell>
                <mxCell id="VZGFqEaVBWsNAY5pUhTf-25" value="Game Over" style="rounded=1;whiteSpace=wrap;html=1;fontSize=10;" parent="WIyWlLk6GJQsqaUBKTNV-1" vertex="1">
                    <mxGeometry x="325" y="800" width="120" height="60" as="geometry"/>
                </mxCell>
                <mxCell id="VZGFqEaVBWsNAY5pUhTf-26" value="&lt;font style=&quot;font-size: 10px;&quot;&gt;Yes&lt;/font&gt;" style="shape=ext;double=1;rounded=1;whiteSpace=wrap;html=1;" parent="WIyWlLk6GJQsqaUBKTNV-1" vertex="1">
                    <mxGeometry x="505" y="730" width="30" height="15" as="geometry"/>
                </mxCell>
                <mxCell id="VZGFqEaVBWsNAY5pUhTf-27" value="" style="endArrow=none;html=1;rounded=0;fontSize=10;" parent="WIyWlLk6GJQsqaUBKTNV-1" target="VZGFqEaVBWsNAY5pUhTf-26" edge="1">
                    <mxGeometry width="50" height="50" relative="1" as="geometry">
                        <mxPoint x="520" y="760" as="sourcePoint"/>
                        <mxPoint x="520" y="709" as="targetPoint"/>
                    </mxGeometry>
                </mxCell>
                <mxCell id="1" value="Ask input of the bidding price" style="rounded=1;whiteSpace=wrap;html=1;fontSize=12;glass=0;strokeWidth=1;shadow=0;" vertex="1" parent="WIyWlLk6GJQsqaUBKTNV-1">
                    <mxGeometry x="320" y="260" width="120" height="40" as="geometry"/>
                </mxCell>
                <mxCell id="3" value="" style="endArrow=classic;html=1;rounded=0;" edge="1" parent="WIyWlLk6GJQsqaUBKTNV-1">
                    <mxGeometry width="50" height="50" relative="1" as="geometry">
                        <mxPoint x="380" y="300" as="sourcePoint"/>
                        <mxPoint x="381" y="360" as="targetPoint"/>
                        <Array as="points"/>
                    </mxGeometry>
                </mxCell>
                <mxCell id="VZGFqEaVBWsNAY5pUhTf-0" value="&lt;font style=&quot;font-size: 10px;&quot;&gt;Yes&lt;/font&gt;" style="shape=ext;double=1;rounded=1;whiteSpace=wrap;html=1;" parent="WIyWlLk6GJQsqaUBKTNV-1" vertex="1">
                    <mxGeometry x="70" y="320" width="30" height="15" as="geometry"/>
                </mxCell>
                <mxCell id="6" value="" style="endArrow=none;html=1;exitX=0;exitY=0.5;exitDx=0;exitDy=0;exitPerimeter=0;" edge="1" parent="WIyWlLk6GJQsqaUBKTNV-1" source="wdoOX7xAPzJTEBuRFlvZ-22">
                    <mxGeometry width="50" height="50" relative="1" as="geometry">
                        <mxPoint x="80" y="390" as="sourcePoint"/>
                        <mxPoint x="80" y="200" as="targetPoint"/>
                    </mxGeometry>
                </mxCell>
                <mxCell id="7" value="Clear Screen" style="rounded=1;whiteSpace=wrap;html=1;" vertex="1" parent="WIyWlLk6GJQsqaUBKTNV-1">
                    <mxGeometry x="40" y="240" width="95" height="30" as="geometry"/>
                </mxCell>
            </root>
        </mxGraphModel>
    </diagram>
</mxfile>